<?xml version="1.0" standalone="no"?>
<svg xmlns:xlink="http://www.w3.org/1999/xlink" id="wave" style="transform:rotate(0deg); transition: 0.3s" viewBox="0 0 1440 490" version="1.1" xmlns="http://www.w3.org/2000/svg"><defs><linearGradient id="sw-gradient-0" x1="0" x2="0" y1="1" y2="0"><stop stop-color="rgba(0, 255, 255, 1)" offset="0%"/><stop stop-color="rgba(11, 213.667, 255, 1)" offset="100%"/></linearGradient></defs><path style="transform:translate(0, 0px); opacity:1" fill="url(#sw-gradient-0)" d="M0,147L21.8,163.3C43.6,180,87,212,131,245C174.5,278,218,310,262,318.5C305.5,327,349,310,393,269.5C436.4,229,480,163,524,155.2C567.3,147,611,196,655,212.3C698.2,229,742,212,785,196C829.1,180,873,163,916,138.8C960,114,1004,82,1047,65.3C1090.9,49,1135,49,1178,73.5C1221.8,98,1265,147,1309,155.2C1352.7,163,1396,131,1440,130.7C1483.6,131,1527,163,1571,163.3C1614.5,163,1658,131,1702,130.7C1745.5,131,1789,163,1833,179.7C1876.4,196,1920,196,1964,212.3C2007.3,229,2051,261,2095,236.8C2138.2,212,2182,131,2225,122.5C2269.1,114,2313,180,2356,236.8C2400,294,2444,343,2487,359.3C2530.9,376,2575,359,2618,310.3C2661.8,261,2705,180,2749,179.7C2792.7,180,2836,261,2880,277.7C2923.6,294,2967,245,3011,187.8C3054.5,131,3098,65,3120,32.7L3141.8,0L3141.8,490L3120,490C3098.2,490,3055,490,3011,490C2967.3,490,2924,490,2880,490C2836.4,490,2793,490,2749,490C2705.5,490,2662,490,2618,490C2574.5,490,2531,490,2487,490C2443.6,490,2400,490,2356,490C2312.7,490,2269,490,2225,490C2181.8,490,2138,490,2095,490C2050.9,490,2007,490,1964,490C1920,490,1876,490,1833,490C1789.1,490,1745,490,1702,490C1658.2,490,1615,490,1571,490C1527.3,490,1484,490,1440,490C1396.4,490,1353,490,1309,490C1265.5,490,1222,490,1178,490C1134.5,490,1091,490,1047,490C1003.6,490,960,490,916,490C872.7,490,829,490,785,490C741.8,490,698,490,655,490C610.9,490,567,490,524,490C480,490,436,490,393,490C349.1,490,305,490,262,490C218.2,490,175,490,131,490C87.3,490,44,490,22,490L0,490Z"/><defs><linearGradient id="sw-gradient-1" x1="0" x2="0" y1="1" y2="0"><stop stop-color="rgba(202.877, 0, 255, 1)" offset="0%"/><stop stop-color="rgba(185.599, 0, 255, 1)" offset="100%"/></linearGradient></defs><path style="transform:translate(0, 50px); opacity:0.9" fill="url(#sw-gradient-1)" d="M0,245L21.8,212.3C43.6,180,87,114,131,122.5C174.5,131,218,212,262,228.7C305.5,245,349,196,393,196C436.4,196,480,245,524,220.5C567.3,196,611,98,655,122.5C698.2,147,742,294,785,294C829.1,294,873,147,916,130.7C960,114,1004,229,1047,261.3C1090.9,294,1135,245,1178,261.3C1221.8,278,1265,359,1309,367.5C1352.7,376,1396,310,1440,261.3C1483.6,212,1527,180,1571,187.8C1614.5,196,1658,245,1702,285.8C1745.5,327,1789,359,1833,383.8C1876.4,408,1920,425,1964,367.5C2007.3,310,2051,180,2095,179.7C2138.2,180,2182,310,2225,326.7C2269.1,343,2313,245,2356,236.8C2400,229,2444,310,2487,326.7C2530.9,343,2575,294,2618,228.7C2661.8,163,2705,82,2749,40.8C2792.7,0,2836,0,2880,57.2C2923.6,114,2967,229,3011,294C3054.5,359,3098,376,3120,383.8L3141.8,392L3141.8,490L3120,490C3098.2,490,3055,490,3011,490C2967.3,490,2924,490,2880,490C2836.4,490,2793,490,2749,490C2705.5,490,2662,490,2618,490C2574.5,490,2531,490,2487,490C2443.6,490,2400,490,2356,490C2312.7,490,2269,490,2225,490C2181.8,490,2138,490,2095,490C2050.9,490,2007,490,1964,490C1920,490,1876,490,1833,490C1789.1,490,1745,490,1702,490C1658.2,490,1615,490,1571,490C1527.3,490,1484,490,1440,490C1396.4,490,1353,490,1309,490C1265.5,490,1222,490,1178,490C1134.5,490,1091,490,1047,490C1003.6,490,960,490,916,490C872.7,490,829,490,785,490C741.8,490,698,490,655,490C610.9,490,567,490,524,490C480,490,436,490,393,490C349.1,490,305,490,262,490C218.2,490,175,490,131,490C87.3,490,44,490,22,490L0,490Z"/></svg>