<?xml version="1.0" standalone="no"?>
<svg xmlns:xlink="http://www.w3.org/1999/xlink" id="wave" style="transform:rotate(0deg); transition: 0.3s" viewBox="0 0 1440 310" version="1.1" xmlns="http://www.w3.org/2000/svg"><defs><linearGradient id="sw-gradient-0" x1="0" x2="0" y1="1" y2="0"><stop stop-color="rgba(0, 0, 0, 0.76)" offset="0%"/><stop stop-color="rgba(0, 56.298, 255, 1)" offset="100%"/></linearGradient></defs><path style="transform:translate(0, 0px); opacity:1" fill="url(#sw-gradient-0)" d="M0,279L14.1,232.5C28.2,186,56,93,85,77.5C112.9,62,141,124,169,144.7C197.6,165,226,145,254,113.7C282.4,83,311,41,339,36.2C367.1,31,395,62,424,77.5C451.8,93,480,93,508,77.5C536.5,62,565,31,593,51.7C621.2,72,649,145,678,180.8C705.9,217,734,217,762,206.7C790.6,196,819,176,847,186C875.3,196,904,238,932,227.3C960,217,988,155,1016,118.8C1044.7,83,1073,72,1101,72.3C1129.4,72,1158,83,1186,77.5C1214.1,72,1242,52,1271,51.7C1298.8,52,1327,72,1355,98.2C1383.5,124,1412,155,1440,160.2C1468.2,165,1496,145,1525,113.7C1552.9,83,1581,41,1609,56.8C1637.6,72,1666,145,1694,180.8C1722.4,217,1751,217,1779,222.2C1807.1,227,1835,238,1864,211.8C1891.8,186,1920,124,1948,113.7C1976.5,103,2005,145,2019,165.3L2032.9,186L2032.9,310L2018.8,310C2004.7,310,1976,310,1948,310C1920,310,1892,310,1864,310C1835.3,310,1807,310,1779,310C1750.6,310,1722,310,1694,310C1665.9,310,1638,310,1609,310C1581.2,310,1553,310,1525,310C1496.5,310,1468,310,1440,310C1411.8,310,1384,310,1355,310C1327.1,310,1299,310,1271,310C1242.4,310,1214,310,1186,310C1157.6,310,1129,310,1101,310C1072.9,310,1045,310,1016,310C988.2,310,960,310,932,310C903.5,310,875,310,847,310C818.8,310,791,310,762,310C734.1,310,706,310,678,310C649.4,310,621,310,593,310C564.7,310,536,310,508,310C480,310,452,310,424,310C395.3,310,367,310,339,310C310.6,310,282,310,254,310C225.9,310,198,310,169,310C141.2,310,113,310,85,310C56.5,310,28,310,14,310L0,310Z"/><defs><linearGradient id="sw-gradient-1" x1="0" x2="0" y1="1" y2="0"><stop stop-color="rgba(62, 193.943, 243, 1)" offset="0%"/><stop stop-color="rgba(11, 131.002, 255, 1)" offset="100%"/></linearGradient></defs><path style="transform:translate(0, 50px); opacity:0.9" fill="url(#sw-gradient-1)" d="M0,93L14.1,103.3C28.2,114,56,134,85,155C112.9,176,141,196,169,211.8C197.6,227,226,238,254,227.3C282.4,217,311,186,339,170.5C367.1,155,395,155,424,144.7C451.8,134,480,114,508,129.2C536.5,145,565,196,593,191.2C621.2,186,649,124,678,124C705.9,124,734,186,762,211.8C790.6,238,819,227,847,211.8C875.3,196,904,176,932,175.7C960,176,988,196,1016,191.2C1044.7,186,1073,155,1101,155C1129.4,155,1158,186,1186,170.5C1214.1,155,1242,93,1271,103.3C1298.8,114,1327,196,1355,232.5C1383.5,269,1412,258,1440,237.7C1468.2,217,1496,186,1525,180.8C1552.9,176,1581,196,1609,175.7C1637.6,155,1666,93,1694,82.7C1722.4,72,1751,114,1779,113.7C1807.1,114,1835,72,1864,72.3C1891.8,72,1920,114,1948,129.2C1976.5,145,2005,134,2019,129.2L2032.9,124L2032.9,310L2018.8,310C2004.7,310,1976,310,1948,310C1920,310,1892,310,1864,310C1835.3,310,1807,310,1779,310C1750.6,310,1722,310,1694,310C1665.9,310,1638,310,1609,310C1581.2,310,1553,310,1525,310C1496.5,310,1468,310,1440,310C1411.8,310,1384,310,1355,310C1327.1,310,1299,310,1271,310C1242.4,310,1214,310,1186,310C1157.6,310,1129,310,1101,310C1072.9,310,1045,310,1016,310C988.2,310,960,310,932,310C903.5,310,875,310,847,310C818.8,310,791,310,762,310C734.1,310,706,310,678,310C649.4,310,621,310,593,310C564.7,310,536,310,508,310C480,310,452,310,424,310C395.3,310,367,310,339,310C310.6,310,282,310,254,310C225.9,310,198,310,169,310C141.2,310,113,310,85,310C56.5,310,28,310,14,310L0,310Z"/></svg>